<svg width="96" height="97" viewBox="0 0 96 97" fill="none" xmlns="http://www.w3.org/2000/svg"><circle cx="48" cy="48.25" r="47" fill="#F9FAFB"/><path d="M48 95.25c25.957 0 47-21.043 47-47s-21.043-47-47-47-47 21.043-47 47 21.043 47 47 47z" fill="url(#a)"/><path d="M74.871 40.495h-5.577c-3.071-8.523-11.327-14.366-22.216-14.366H29.171v14.366h-6.22v5.154h6.22v5.405h-6.22v5.155h6.22v14.194h17.907c10.763 0 18.957-5.797 22.106-14.194h5.687v-5.155h-4.434c.11-.908.173-1.848.173-2.788v-.126c0-.846-.047-1.676-.126-2.49h4.403v-5.155h-.016zm-40.686-9.776h12.893c7.99 0 13.928 3.932 16.67 9.76H34.185v-9.76zm12.893 35.046H34.185v-9.572h29.531c-2.757 5.734-8.679 9.572-16.638 9.572zm18.346-17.39c0 .909-.063 1.802-.188 2.664H34.185v-5.405h31.067c.11.846.172 1.723.172 2.616v.125z" fill="#fff"/><defs><linearGradient id="a" x1="48" y1="-12.067" x2="48" y2="105.12" gradientUnits="userSpaceOnUse"><stop stop-color="#F9A606"/><stop offset="1" stop-color="#FBCC5F"/></linearGradient></defs></svg>